<?xml version="1.0" encoding="UTF-8" standalone="no"?>
<!-- Created with Inkscape (http://www.inkscape.org/) -->

<svg
   xmlns:dc="http://purl.org/dc/elements/1.1/"
   xmlns:cc="http://creativecommons.org/ns#"
   xmlns:rdf="http://www.w3.org/1999/02/22-rdf-syntax-ns#"
   xmlns:svg="http://www.w3.org/2000/svg"
   xmlns="http://www.w3.org/2000/svg"
   xmlns:sodipodi="http://sodipodi.sourceforge.net/DTD/sodipodi-0.dtd"
   xmlns:inkscape="http://www.inkscape.org/namespaces/inkscape"
   width="64px"
   height="64px"
   id="svg3768"
   version="1.1"
   inkscape:version="0.48.3.1 r9886"
   sodipodi:docname="setting (copie).svg">
  <defs
     id="defs3770" />
  <sodipodi:namedview
     id="base"
     pagecolor="#ffffff"
     bordercolor="#666666"
     borderopacity="1.0"
     inkscape:pageopacity="0.0"
     inkscape:pageshadow="2"
     inkscape:zoom="7.7781746"
     inkscape:cx="-45.61883"
     inkscape:cy="38.614327"
     inkscape:current-layer="layer1"
     showgrid="true"
     inkscape:document-units="px"
     inkscape:grid-bbox="true"
     inkscape:window-width="1535"
     inkscape:window-height="876"
     inkscape:window-x="65"
     inkscape:window-y="24"
     inkscape:window-maximized="1" />
  <metadata
     id="metadata3773">
    <rdf:RDF>
      <cc:Work
         rdf:about="">
        <dc:format>image/svg+xml</dc:format>
        <dc:type
           rdf:resource="http://purl.org/dc/dcmitype/StillImage" />
        <dc:title />
      </cc:Work>
    </rdf:RDF>
  </metadata>
  <g
     id="layer1"
     inkscape:label="Layer 1"
     inkscape:groupmode="layer">
    <path
       style="fill:#000001;fill-opacity:0;stroke:#000000;stroke-opacity:1"
       d="m 26.96001,63.691214 c -0.03854,-0.171199 -0.384736,-2.179407 -0.76921,-4.462596 -0.384458,-2.283212 -0.74119,-4.188799 -0.792734,-4.234673 -0.240658,-0.21418 -4.58993,-1.943809 -4.740442,-1.885194 -0.09398,0.03657 -1.716414,1.16845 -3.60545,2.515231 -1.889034,1.346783 -3.534464,2.502434 -3.65652,2.56808 -0.174016,0.09363 -0.974526,-0.617681 -3.712282,-3.298928 L 6.1930026,51.474829 8.8108321,47.659692 11.42866,43.844578 10.975992,42.957299 C 10.727016,42.469321 10.260694,41.41621 9.9396882,40.617102 9.6187,39.817975 9.306482,39.129985 9.2458723,39.088251 9.1851927,39.046448 7.1310166,38.677655 4.6808925,38.268608 L 0.22609436,37.524878 0.1362951,34.82828 C 0.08695317,33.345162 0.04649584,31.054818 0.04649584,29.738639 l 0,-2.393042 0.44735028,-0.07375 C 5.4104336,26.461043 8.5832301,25.93073 8.8668,25.872377 c 0.2952698,-0.06068 0.4084334,-0.229511 0.6714455,-1.001291 0.1740161,-0.510522 0.6265105,-1.594919 1.0056325,-2.40978 l 0.689334,-1.481591 -2.7027964,-3.87359 C 7.04387,14.975656 5.8276042,13.182291 5.8276042,13.120864 c 0,-0.06149 1.5731724,-1.692273 3.4959302,-3.6241246 L 12.819448,5.9843153 13.96907,6.7968655 c 0.632283,0.4469047 2.367441,1.6963126 3.855925,2.776431 l 2.706301,1.9638805 2.351172,-1.003219 c 1.293144,-0.5517543 2.381164,-1.0333406 2.417798,-1.0701924 0.03662,-0.036772 0.377918,-2.0247045 0.758366,-4.4174858 0.380464,-2.3927611 0.72337,-4.48907998 0.762026,-4.65849022 l 0.07026,-0.30799667 5.05667,-0.03797714 c 2.781174,-0.02089749 5.07634,-0.0285331 5.100368,-0.01607499 0.02406,0.01205616 0.38308,2.12631872 0.797894,4.69970242 0.414832,2.5733636 0.772908,4.6976325 0.79575,4.7205997 0.02284,0.022907 1.106502,0.5039306 2.408154,1.0688461 l 2.366638,1.02709 3.82386,-2.7588685 c 2.10312,-1.517398 3.881311,-2.758447 3.95151,-2.7579245 0.07028,5.627e-4 1.684732,1.6073577 3.587822,3.5706958 l 3.460196,3.5697112 -0.407142,0.545987 c -0.223938,0.3003 -1.457344,2.053779 -2.740914,3.896616 l -2.333752,3.350649 0.596328,1.284934 c 0.32798,0.706716 0.77683,1.796762 0.997438,2.422299 0.337866,0.958069 0.455928,1.148718 0.74907,1.209521 0.27534,0.05707 3.961382,0.673181 8.385614,1.401558 l 0.467158,0.07695 -0.07044,5.045536 c -0.0387,2.775024 -0.09502,5.07015 -0.124842,5.100231 -0.03,0.03014 -1.787922,0.339544 -3.90663,0.687646 -2.11871,0.348125 -4.163976,0.696549 -4.545032,0.774313 l -0.692822,0.141454 -0.39274,1.068805 c -0.216004,0.587842 -0.662988,1.612441 -0.993322,2.27684 -0.330318,0.66442 -0.6006,1.273742 -0.6006,1.354036 0,0.126989 4.041326,6.116511 4.90398,7.268104 l 0.315076,0.420621 -3.14631,3.070623 c -1.730468,1.688858 -3.338182,3.23294 -3.572722,3.431326 l -0.426408,0.360702 -0.654132,-0.473206 c -0.359785,-0.260256 -2.037733,-1.45758 -3.728795,-2.660752 l -3.07463,-2.187544 -0.91709,0.378425 c -2.790764,1.151632 -3.876448,1.637598 -3.876448,1.735174 0,0.144069 -1.35525,8.144491 -1.447664,8.545903 l -0.07166,0.311352 -4.949996,0 -4.949994,0 -0.0701,-0.311352 z m 7.277646,-22.810362 c 2.033706,-0.380233 4.606514,-2.463651 5.62301,-4.553399 0.703352,-1.445985 0.835608,-2.211153 0.763752,-4.418873 -0.06034,-1.856418 -0.0673,-1.890237 -0.621402,-3.053402 -1.096494,-2.301676 -2.869506,-3.931639 -5.132292,-4.718208 -0.761034,-0.264555 -1.18258,-0.311151 -2.821732,-0.311915 -2.10666,-9.64e-4 -2.267128,0.0209 -3.357746,0.455947 -2.444475,0.975269 -4.752632,3.64241 -5.254227,6.071399 -0.09502,0.460409 -0.134435,1.494935 -0.09782,2.57652 0.07272,2.153424 0.364266,3.030796 1.519626,4.572549 2.259996,3.015786 5.35637,4.131451 9.378882,3.379382 z"
       id="path2998"
       inkscape:connector-curvature="0" />
  </g>
</svg>
