<?xml version="1.0" encoding="UTF-8" standalone="no"?>
<!-- Created with Inkscape (http://www.inkscape.org/) -->

<svg
   xmlns:dc="http://purl.org/dc/elements/1.1/"
   xmlns:cc="http://creativecommons.org/ns#"
   xmlns:rdf="http://www.w3.org/1999/02/22-rdf-syntax-ns#"
   xmlns:svg="http://www.w3.org/2000/svg"
   xmlns="http://www.w3.org/2000/svg"
   version="1.1"
   width="540"
   height="540"
   id="svg2">
  <metadata
     id="metadata8">
    <rdf:RDF>
      <cc:Work
         rdf:about="">
        <dc:format>image/svg+xml</dc:format>
        <dc:type
           rdf:resource="http://purl.org/dc/dcmitype/StillImage" />
        <dc:title></dc:title>
      </cc:Work>
    </rdf:RDF>
  </metadata>
  <defs
     id="defs6" />
  <path
     d="m 240.78881,527.43761 c -1.925,-0.22332 -8,-0.88033 -13.5,-1.46003 -5.5,-0.5797 -15.175,-2.20053 -21.5,-3.60185 -23.46272,-5.19822 -34.54473,-13.17578 -37.97657,-27.33801 -0.59975,-2.475 -1.49532,-22.275 -1.99016,-44 -0.49485,-21.725 -1.38791,-44 -1.98458,-49.5 -4.84493,-44.65939 -13.51988,-68.80416 -30.11685,-83.82356 -8.79668,-7.96054 -19.23251,-12.72418 -39.816272,-18.17491 -20.43651,-5.41174 -28.40259,-8.77202 -32.86557,-13.86346 -2.80845,-3.20394 -3.25,-4.44196 -3.25,-9.11242 0,-12.04359 7.31974,-22.53882 81.966462,-117.52565 C 239.00114,32.748842 251.28108,18.506519 264.52205,14.33267 c 4.9476,-1.559593 5.60466,-1.553686 10.84276,0.09748 12.58699,3.967698 27.43206,21.266478 127.95776,149.10757 70.9792,90.26606 78.51077,101.09905 78.4308,112.81045 -0.0195,2.85425 -0.58198,6.16425 -1.25,7.35556 -3.20464,5.71504 -12.13828,9.93055 -32.24866,15.21713 -24.75739,6.50818 -33.08024,10.25591 -43.08764,19.40211 -9.28554,8.48647 -14.92747,18.19845 -20.16666,34.71475 -7.7485,24.42682 -11.13348,54.41887 -11.2298,99.5 -0.0872,40.82196 -1.93242,50.22851 -11.36976,57.9617 -8.39786,6.88142 -24.11813,12.08009 -45.61204,15.08385 -10.95261,1.53062 -67.00206,2.89818 -76,1.85434 z m 38.25,-1.14496 c -5.0875,-0.18149 -13.4125,-0.18149 -18.5,0 -5.0875,0.18149 -0.925,0.32999 9.25,0.32999 10.175,0 14.3375,-0.1485 9.25,-0.32999 z m -33,-0.97833 c -1.7875,-0.22182 -4.7125,-0.22182 -6.5,0 -1.7875,0.22183 -0.325,0.40333 3.25,0.40333 3.575,0 5.0375,-0.1815 3.25,-0.40333 z m 50.25,-0.2766 -7,-0.64683 5.69878,-0.17658 c 6.83331,-0.21175 27.31686,-2.75772 34.30122,-4.26343 7.9138,-1.70608 20.67671,-5.97392 24.5,-8.19267 1.925,-1.11712 5.24257,-3.64873 7.37239,-5.62581 2.91827,-2.70899 3.58303,-3.03257 2.69802,-1.3133 -1.02881,1.99861 -3.45478,4.03477 -10.70997,8.98904 -1.57299,1.07413 -1.47418,1.09337 0.63956,0.12452 4.02296,-1.84396 8.68789,-5.64787 11.12694,-9.07321 1.24652,-1.75057 1.65142,-2.80278 0.89979,-2.33825 -1.05452,0.65173 -1.18277,0.4075 -0.56161,-1.06944 0.44275,-1.05272 1.36917,-3.46513 2.0587,-5.36091 1.02517,-2.81856 1.34845,-3.09198 1.77349,-1.5 0.28588,1.07078 0.29959,-0.0781 0.0305,-2.55313 -0.27357,-2.51582 -0.12301,-3.98972 0.34145,-3.34272 0.45692,0.6365 0.78873,-8.5885 0.73734,-20.5 -0.0778,-18.02557 0.0259,-19.72885 0.61822,-10.15728 0.47595,7.69114 0.62313,2.39185 0.4444,-16 -0.14699,-15.125 0.0865,-25.925 0.51881,-24 0.4957,2.20715 0.64875,-0.19386 0.41434,-6.5 -0.24912,-6.70187 -0.0749,-9.17547 0.5283,-7.5 0.62132,1.72583 0.76606,0.17748 0.4674,-5 -0.29134,-5.05076 -0.13147,-6.84687 0.48954,-5.5 0.6396,1.38718 0.79304,0.16153 0.50075,-4 -0.29894,-4.25636 -0.14642,-5.41879 0.52485,-4 0.78127,1.65131 0.9585,1.70518 1.01653,0.30902 0.0387,-0.93004 -0.30468,-1.92273 -0.76298,-2.20597 -0.4583,-0.28325 -0.61584,-1.99643 -0.35009,-3.80707 0.41429,-2.82274 0.59807,-3.00722 1.28911,-1.29403 0.49171,1.21903 0.59672,0.24353 0.26932,-2.50195 -0.39553,-3.31687 -0.25991,-4.10562 0.51581,-3 0.78057,1.11251 0.9092,0.46669 0.49796,-2.5 -0.43527,-3.14004 -0.3076,-3.67751 0.59385,-2.5 0.93406,1.22012 1.0268,1.06935 0.497,-0.80805 -0.7909,-2.80269 1.36168,-12.40802 2.60805,-11.63773 0.48914,0.30231 0.62778,-0.13198 0.30809,-0.96509 -1.32504,-3.453 7.81221,-24.10223 13.35688,-30.18516 1.51101,-1.65769 2.09036,-2.08923 1.28745,-0.95898 -0.80292,1.13026 0.99182,-0.41999 3.9883,-3.44499 2.99649,-3.025 5.45342,-5.9071 5.45985,-6.40467 0.006,-0.49757 0.68669,-1.01054 1.51169,-1.13995 0.825,-0.1294 4.52937,-2.08479 8.23193,-4.34533 3.70256,-2.26053 7.30256,-4.11694 8,-4.12536 0.86941,-0.0105 0.79649,-0.32007 -0.23193,-0.98469 -0.825,-0.53316 -5.6625,-0.97627 -10.75,-0.98469 -5.48979,-0.009 -9.25,-0.42182 -9.25,-1.01531 0,-0.55 1.0125,-1.02593 2.25,-1.05762 7.41807,-0.18995 39.50311,-5.43716 50.83563,-8.31369 8.01922,-2.03551 11.42091,-3.23415 18.41437,-6.48858 0.55,-0.25594 0.34219,0.39533 -0.46181,1.44727 -0.80399,1.05194 -0.0165,0.59093 1.75,-1.02447 3.2499,-2.97192 4.14925,-4.26032 2.08208,-2.98273 -0.69191,0.42762 -0.93412,0.15983 -0.625,-0.69098 0.2776,-0.76406 0.95927,-1.29394 1.51483,-1.1775 1.73937,0.36454 -0.55555,-7.37618 -4.3066,-14.52604 -2.98992,-5.69908 -18.24262,-27.92558 -21.79972,-31.76693 -0.63458,-0.6853 -2.11515,-2.52236 -3.29015,-4.08236 -1.17501,-1.56 -8.60001,-11.10638 -16.5,-21.21418 -7.9,-10.1078 -15.02891,-19.3328 -15.84202,-20.5 -0.81314,-1.1672 -7.35701,-9.54719 -14.54195,-18.62219 -7.18495,-9.075 -18.31774,-23.25 -24.73955,-31.5 -41.38231,-53.163282 -79.19544,-99.856842 -90.09186,-111.250006 -5.50647,-5.757501 -3.44411,-5.399757 2.88246,0.5 2.8015,2.6125 1.96146,1.689567 -1.86676,-2.050962 -6.48825,-6.339628 -12.26635,-10.429997 -13.28898,-9.407376 -0.24152,0.241524 0.89277,0.990824 2.52064,1.665111 3.10273,1.285193 7.1373,5.043227 5.41434,5.043227 -0.55,0 -1.80924,-0.894191 -2.7983,-1.987092 -0.98906,-1.092901 -3.30425,-2.531655 -5.14487,-3.197232 -2.24802,-0.812892 -2.93957,-1.468635 -2.1067,-1.997595 0.73069,-0.464059 -0.31337,-0.793744 -2.54223,-0.802768 -4.06697,-0.01647 -10.90485,2.385922 -10.50251,3.689898 0.13488,0.437134 -3.1209,4.178582 -7.23507,8.314329 -8.06948,8.111814 -29.11094,33.336904 -52.9803,63.514294 -3.575,4.51977 -11.225,14.186862 -17,21.482402 -5.775,7.29555 -14.1,17.88737 -18.5,23.53738 -4.4,5.65001 -14.075,18.0168 -21.5,27.48177 -7.425,9.46496 -17.0166,21.76653 -21.31467,27.33682 -8.32128,10.78438 -17.82078,22.80125 -18.67809,23.6278 -0.28524,0.275 -2.51964,3.2 -4.965352,6.5 -2.4457,3.3 -4.91815,6.50736 -5.49431,7.12747 -0.57617,0.62011 -1.72258,2.1176 -2.54758,3.32776 -0.825,1.21015 -2.625,3.55558 -4,5.21206 -8.4789,10.21465 -19.27531,27.14345 -22.44971,35.20123 -3.78582,9.60979 -3.72746,10.38029 1.10789,14.62785 l 2.84182,2.49636 -3,-3.42673 -3,-3.42673 3,2.2712 c 7.28513,5.51535 19.90128,8.93623 48.500002,13.15083 16.34088,2.40816 18.5716,2.69938 21.75,2.83951 1.2375,0.0546 2.25,0.54919 2.25,1.09919 0,0.59349 -3.76021,1.00622 -9.25,1.01531 -9.69981,0.0161 -14.02182,1.14119 -9.63213,2.50748 1.31017,0.40779 5.3796,2.67202 9.04318,5.03161 3.66357,2.35959 6.96357,3.98764 7.33333,3.61789 0.36976,-0.36976 0.52229,-0.19503 0.33895,0.38829 -0.18333,0.58332 2.57737,4.18332 6.1349,8 3.55753,3.81668 5.83249,6.03942 5.05546,4.93942 -0.77702,-1.1 -3.23772,-4.0246 -5.46823,-6.49912 l -4.05546,-4.49911 4.35589,3.99911 c 2.39573,2.19952 5.51864,5.79912 6.93979,7.99912 6.36184,9.84841 12.82116,26.79384 11.71311,30.72825 -0.52218,1.85412 -0.42845,1.99599 0.5099,0.77175 0.90829,-1.18505 1.02733,-0.76511 0.5669,2 -0.44354,2.66372 -0.3244,3.1416 0.49863,2 0.81731,-1.13367 0.946,-0.52311 0.52694,2.5 -0.35224,2.54105 -0.22898,3.47813 0.33795,2.56919 0.64777,-1.03857 1.06923,-0.35321 1.53738,2.5 0.35473,2.16194 1.01218,5.84963 1.461,8.19486 0.45733,2.38965 0.42844,4.50361 -0.0657,4.80902 -0.48497,0.29973 -0.85014,1.30591 -0.81148,2.23595 0.058,1.39625 0.23529,1.34239 1.017,-0.30902 0.67021,-1.41584 0.81936,-0.24753 0.51065,4 -0.31533,4.3388 -0.18571,5.30783 0.4682,3.5 0.63172,-1.7465 0.78354,-0.23951 0.50373,5 -0.27885,5.22139 -0.12684,6.74046 0.50033,5 0.6014,-1.66894 0.77974,0.99046 0.53649,8 -0.21326,6.14507 -0.0541,9.04836 0.38375,7 0.41148,-1.925 0.64272,10 0.51388,26.5 -0.16886,21.62499 -0.041,25.95208 0.45794,15.5 0.65443,-13.70886 0.68798,-13.29106 0.61497,7.65736 -0.0425,12.18655 0.29754,21.63655 0.75559,21 0.46615,-0.6478 0.58869,0.60374 0.27834,2.84264 -0.41219,2.97355 -0.28353,3.61508 0.50137,2.5 0.79079,-1.12343 0.90955,-0.62134 0.47306,2 -0.36876,2.21462 -0.25621,2.99241 0.30648,2.11787 0.7012,-1.08981 1.0318,-0.93308 1.56315,0.74105 0.37063,1.16775 0.44087,2.5002 0.15608,2.961 -1.41549,2.29031 12.7829,14.18843 16.8887,14.15258 0.55,-0.005 -1.41826,-1.34175 -4.37391,-2.971 -5.91373,-3.25985 -8.38849,-5.07243 -7.76997,-5.69096 0.22246,-0.22245 2.37083,0.8927 4.77417,2.47812 14.69621,9.69466 43.64731,14.70517 87.32594,15.11333 10.42593,0.0974 19.16343,0.38433 19.41667,0.63757 0.25324,0.25324 3.42293,0.38098 7.04377,0.28385 l 6.58331,-0.17658 -7,-0.64683 z m -120.9851,-20.71879 -1.75601,-2.78121 2.315,2.22222 c 1.27325,1.22222 2.06346,2.47377 1.75601,2.78121 -0.30744,0.30744 -1.34919,-0.69256 -2.315,-2.22222 z m -6.43595,-63.69788 c -0.0434,-1.05416 0.19292,-1.64479 0.52522,-1.3125 0.33229,0.33229 0.36781,1.19479 0.0789,1.91667 -0.31922,0.79773 -0.55618,0.56078 -0.60416,-0.60417 z M 261.78881,18.037714 c 0.825,-0.533156 1.95,-0.969374 2.5,-0.969374 0.55,0 0.325,0.436218 -0.5,0.969374 -0.825,0.533156 -1.95,0.969374 -2.5,0.969374 -0.55,0 -0.325,-0.436218 0.5,-0.969374 z m -28.75,506.294276 c -1.2375,-0.23836 -3.2625,-0.23836 -4.5,0 -1.2375,0.23835 -0.225,0.43337 2.25,0.43337 2.475,0 3.4875,-0.19502 2.25,-0.43337 z m 78.01375,0.002 c -1.22994,-0.23736 -3.47994,-0.24351 -5,-0.0136 -1.52006,0.22985 -0.51375,0.42406 2.23625,0.43157 2.75,0.008 3.99369,-0.18056 2.76375,-0.41792 z m -86.51375,-0.9856 c -0.9625,-0.25152 -2.5375,-0.25152 -3.5,0 -0.9625,0.25153 -0.175,0.45733 1.75,0.45733 1.925,0 2.7125,-0.2058 1.75,-0.45733 z m 98.75,-0.2533 c 5.26454,-1.08893 0.53451,-1.18217 -5.5,-0.10841 -3.37449,0.60044 -3.74966,0.8176 -1.5,0.86824 1.65,0.0371 4.8,-0.30478 7,-0.75983 z m -105.76903,-0.75036 c -0.97297,-0.25354 -2.32297,-0.23687 -3,0.0371 -0.67703,0.27393 0.11903,0.48137 1.76903,0.46099 1.65,-0.0204 2.20394,-0.2445 1.23097,-0.49804 z m -5.48097,-0.96929 c -0.6875,-0.27741 -1.8125,-0.27741 -2.5,0 -0.6875,0.27741 -0.125,0.50439 1.25,0.50439 1.375,0 1.9375,-0.22698 1.25,-0.50439 z m 119,0 c -0.6875,-0.27741 -1.8125,-0.27741 -2.5,0 -0.6875,0.27741 -0.125,0.50439 1.25,0.50439 1.375,0 1.9375,-0.22698 1.25,-0.50439 z m -124,-1 c -0.6875,-0.27741 -1.8125,-0.27741 -2.5,0 -0.6875,0.27741 -0.125,0.50439 1.25,0.50439 1.375,0 1.9375,-0.22698 1.25,-0.50439 z m 127.9375,-0.0208 c -0.72188,-0.28887 -1.58438,-0.25335 -1.91667,0.0789 -0.33229,0.33229 0.25834,0.56864 1.3125,0.52522 1.16495,-0.048 1.4019,-0.28494 0.60417,-0.60416 z m -133,-1 c -0.72188,-0.28887 -1.58438,-0.25335 -1.91667,0.0789 -0.33229,0.33229 0.25834,0.56864 1.3125,0.52522 1.16495,-0.048 1.4019,-0.28494 0.60417,-0.60416 z m 137,0 c -0.72188,-0.28887 -1.58438,-0.25335 -1.91667,0.0789 -0.33229,0.33229 0.25834,0.56864 1.3125,0.52522 1.16495,-0.048 1.4019,-0.28494 0.60417,-0.60416 z m -144.1875,-2.31692 c -0.825,-0.53316 -1.95,-0.96937 -2.5,-0.96937 -0.55,0 -0.325,0.43621 0.5,0.96937 0.825,0.53316 1.95,0.96937 2.5,0.96937 0.55,0 0.325,-0.43621 -0.5,-0.96937 z m 155,-1 c 0.825,-0.53316 1.05,-0.96937 0.5,-0.96937 -0.55,0 -1.675,0.43621 -2.5,0.96937 -0.825,0.53316 -1.05,0.96937 -0.5,0.96937 0.55,0 1.675,-0.43621 2.5,-0.96937 z M 151.40711,336.37613 c -0.84603,-1.56113 -1.55624,-2.52208 -1.57826,-2.13546 -0.0677,1.18867 2.25876,5.83158 2.70066,5.38968 0.2287,-0.2287 -0.27638,-1.6931 -1.1224,-3.25422 z m 239.8817,-4.33841 c 0.85325,-1.65 1.32636,-3 1.05136,-3 -0.275,0 -1.19811,1.35 -2.05136,3 -0.85325,1.65 -1.32636,3 -1.05136,3 0.275,0 1.19811,-1.35 2.05136,-3 z m -242.5,-1 c -0.5887,-1.1 -1.29537,-2 -1.57037,-2 -0.275,0 -0.0183,0.9 0.57037,2 0.5887,1.1 1.29537,2 1.57037,2 0.275,0 0.0183,-0.9 -0.57037,-2 z m -64.000002,-96.5 c 0.68469,-0.825 1.01989,-1.5 0.74489,-1.5 -0.275,0 -1.0602,0.675 -1.74489,1.5 -0.68469,0.825 -1.01989,1.5 -0.74489,1.5 0.275,0 1.0602,-0.675 1.74489,-1.5 z m 372.000002,1.12244 c 0,-0.20765 -0.7875,-0.99515 -1.75,-1.75 -1.58606,-1.24387 -1.62143,-1.2085 -0.37756,0.37756 1.30637,1.66575 2.12756,2.19548 2.12756,1.37244 z M 87.788808,230.53772 c 0.68469,-0.825 1.01989,-1.5 0.74489,-1.5 -0.275,0 -1.0602,0.675 -1.74489,1.5 -0.68469,0.825 -1.01989,1.5 -0.74489,1.5 0.275,0 1.0602,-0.675 1.74489,-1.5 z m 366.000002,1.12244 c 0,-0.20765 -0.7875,-0.99515 -1.75,-1.75 -1.58606,-1.24387 -1.62143,-1.2085 -0.37756,0.37756 1.30637,1.66575 2.12756,2.19548 2.12756,1.37244 z M 91.288808,226.03772 c 0.99549,-1.1 1.58497,-2 1.30998,-2 -0.27501,0 -1.31449,0.9 -2.30998,2 -0.99549,1.1 -1.58497,2 -1.30998,2 0.27501,0 1.31449,-0.9 2.30998,-2 z m 359.500002,1.65499 c 0,-0.18976 -1.0125,-1.20226 -2.25,-2.25 l -2.25,-1.90499 1.90499,2.25 c 1.79022,2.11444 2.59501,2.70524 2.59501,1.90499 z M 94.788808,221.53772 c 0.68469,-0.825 1.01989,-1.5 0.74489,-1.5 -0.275,0 -1.0602,0.675 -1.74489,1.5 -0.68469,0.825 -1.01989,1.5 -0.74489,1.5 0.275,0 1.0602,-0.675 1.74489,-1.5 z m 352.000002,1.12244 c 0,-0.20765 -0.7875,-0.99515 -1.75,-1.75 -1.58606,-1.24387 -1.62143,-1.2085 -0.37756,0.37756 1.30637,1.66575 2.12756,2.19548 2.12756,1.37244 z M 98.288808,217.03772 c 0.99549,-1.1 1.58498,-2 1.30998,-2 -0.27501,0 -1.31449,0.9 -2.30998,2 -0.99549,1.1 -1.58497,2 -1.30998,2 0.27501,0 1.31449,-0.9 2.30998,-2 z m 345.500002,1.65499 c 0,-0.18976 -1.0125,-1.20226 -2.25,-2.25 l -2.25,-1.90499 1.90499,2.25 c 1.79022,2.11444 2.59501,2.70524 2.59501,1.90499 z m -342,-6.15499 c 0.68469,-0.825 1.01989,-1.5 0.74489,-1.5 -0.275,0 -1.0602,0.675 -1.74489,1.5 -0.68469,0.825 -1.019892,1.5 -0.74489,1.5 0.275,0 1.0602,-0.675 1.74489,-1.5 z m 338,1.12244 c 0,-0.20765 -0.7875,-0.99515 -1.75,-1.75 -1.58606,-1.24387 -1.62143,-1.2085 -0.37756,0.37756 1.30637,1.66575 2.12756,2.19548 2.12756,1.37244 z m -335,-5.12244 c 0.68469,-0.825 1.01989,-1.5 0.74489,-1.5 -0.275,0 -1.0602,0.675 -1.74489,1.5 -0.68469,0.825 -1.01989,1.5 -0.74489,1.5 0.275,0 1.0602,-0.675 1.74489,-1.5 z m 332,1.15499 c 0,-0.18976 -1.0125,-1.20226 -2.25,-2.25 l -2.25,-1.90499 1.90499,2.25 c 1.79022,2.11444 2.59501,2.70524 2.59501,1.90499 z m -328,-6.15499 c 0.68469,-0.825 1.01989,-1.5 0.74489,-1.5 -0.275,0 -1.0602,0.675 -1.74489,1.5 -0.68469,0.825 -1.01989,1.5 -0.74489,1.5 0.275,0 1.0602,-0.675 1.74489,-1.5 z m 324,1.12244 c 0,-0.20765 -0.7875,-0.99515 -1.75,-1.75 -1.58606,-1.24387 -1.62143,-1.2085 -0.37756,0.37756 1.30637,1.66575 2.12756,2.19548 2.12756,1.37244 z m -3,-3.96745 c 0,-0.18976 -1.0125,-1.20226 -2.25,-2.25 l -2.25,-1.90499 1.90499,2.25 c 1.79022,2.11444 2.59501,2.70524 2.59501,1.90499 z m -317,-2.15499 c 0.68469,-0.825 1.01989,-1.5 0.74489,-1.5 -0.275,0 -1.0602,0.675 -1.74489,1.5 -0.68469,0.825 -1.01989,1.5 -0.74489,1.5 0.275,0 1.0602,-0.675 1.74489,-1.5 z m 3.5,-4.5 c 0.99549,-1.1 1.58498,-2 1.30998,-2 -0.275,0 -1.31449,0.9 -2.30998,2 -0.99549,1.1 -1.58498,2 -1.30998,2 0.275,0 1.31449,-0.9 2.30998,-2 z m 309.5,1.65499 c 0,-0.18976 -1.0125,-1.20226 -2.25,-2.25 l -2.25,-1.90499 1.90499,2.25 c 1.79022,2.11444 2.59501,2.70524 2.59501,1.90499 z m -306,-6.15499 c 0.68469,-0.825 1.01989,-1.5 0.74489,-1.5 -0.275,0 -1.0602,0.675 -1.74489,1.5 -0.68469,0.825 -1.01989,1.5 -0.74489,1.5 0.275,0 1.0602,-0.675 1.74489,-1.5 z m 302,1.12244 c 0,-0.20765 -0.7875,-0.99515 -1.75,-1.75 -1.58606,-1.24387 -1.62143,-1.2085 -0.37756,0.37756 1.30637,1.66575 2.12756,2.19548 2.12756,1.37244 z m -298.5,-5.62244 c 0.99549,-1.1 1.58498,-2 1.30998,-2 -0.275,0 -1.31449,0.9 -2.30998,2 -0.99549,1.1 -1.58498,2 -1.30998,2 0.275,0 1.31449,-0.9 2.30998,-2 z m 295.5,1.65499 c 0,-0.18976 -1.0125,-1.20226 -2.25,-2.25 l -2.25,-1.90499 1.90499,2.25 c 1.79022,2.11444 2.59501,2.70524 2.59501,1.90499 z m -291.5,-6.65499 c 0.99549,-1.1 1.58498,-2 1.30998,-2 -0.275,0 -1.31449,0.9 -2.30998,2 -0.99549,1.1 -1.58498,2 -1.30998,2 0.275,0 1.31449,-0.9 2.30998,-2 z m 287.5,1.65499 c 0,-0.18976 -1.0125,-1.20226 -2.25,-2.25 l -2.25,-1.90499 1.90499,2.25 c 1.79022,2.11444 2.59501,2.70524 2.59501,1.90499 z m -284,-6.15499 c 0.68469,-0.825 1.01989,-1.5 0.74489,-1.5 -0.275,0 -1.0602,0.675 -1.74489,1.5 -0.68469,0.825 -1.01989,1.5 -0.74489,1.5 0.275,0 1.0602,-0.675 1.74489,-1.5 z m 280,1.12244 c 0,-0.20765 -0.7875,-0.99515 -1.75,-1.75 -1.58606,-1.24387 -1.62143,-1.2085 -0.37756,0.37756 1.30637,1.66575 2.12756,2.19548 2.12756,1.37244 z m -277,-5.12244 c 0.68469,-0.825 1.01989,-1.5 0.74489,-1.5 -0.275,0 -1.0602,0.675 -1.74489,1.5 -0.68469,0.825 -1.01989,1.5 -0.74489,1.5 0.275,0 1.0602,-0.675 1.74489,-1.5 z m 274,1.12244 c 0,-0.20765 -0.7875,-0.99515 -1.75,-1.75 -1.58606,-1.24387 -1.62143,-1.2085 -0.37756,0.37756 1.30637,1.66575 2.12756,2.19548 2.12756,1.37244 z m -270,-6.12244 c 0.68469,-0.825 1.01989,-1.5 0.74489,-1.5 -0.275,0 -1.0602,0.675 -1.74489,1.5 -0.68469,0.825 -1.01989,1.5 -0.74489,1.5 0.275,0 1.0602,-0.675 1.74489,-1.5 z m 266,1.12244 c 0,-0.20765 -0.7875,-0.99515 -1.75,-1.75 -1.58606,-1.24387 -1.62143,-1.2085 -0.37756,0.37756 1.30637,1.66575 2.12756,2.19548 2.12756,1.37244 z m -263,-5.12244 c 0.68469,-0.825 1.01989,-1.5 0.74489,-1.5 -0.275,0 -1.0602,0.675 -1.74489,1.5 -0.68469,0.825 -1.01989,1.5 -0.74489,1.5 0.275,0 1.0602,-0.675 1.74489,-1.5 z m 260,1.15499 c 0,-0.18976 -1.0125,-1.20226 -2.25,-2.25 l -2.25,-1.90499 1.90499,2.25 c 1.79022,2.11444 2.59501,2.70524 2.59501,1.90499 z m -256,-6.15499 c 0.68469,-0.825 1.01989,-1.5 0.74489,-1.5 -0.275,0 -1.0602,0.675 -1.74489,1.5 -0.68469,0.825 -1.01989,1.5 -0.74489,1.5 0.275,0 1.0602,-0.675 1.74489,-1.5 z m 252,1.12244 c 0,-0.20765 -0.7875,-0.99515 -1.75,-1.75 -1.58606,-1.24387 -1.62143,-1.2085 -0.37756,0.37756 1.30637,1.66575 2.12756,2.19548 2.12756,1.37244 z m -3,-3.96745 c 0,-0.18976 -1.0125,-1.20226 -2.25,-2.25 l -2.25,-1.90499 1.90499,2.25 c 1.79022,2.11444 2.59501,2.70524 2.59501,1.90499 z m -245,-2.15499 c 0.68469,-0.825 1.01989,-1.5 0.74489,-1.5 -0.275,0 -1.0602,0.675 -1.74489,1.5 -0.68469,0.825 -1.01989,1.5 -0.74489,1.5 0.275,0 1.0602,-0.675 1.74489,-1.5 z m 3,-4 c 0.68469,-0.825 1.01989,-1.5 0.74489,-1.5 -0.275,0 -1.0602,0.675 -1.74489,1.5 -0.68469,0.825 -1.01989,1.5 -0.74489,1.5 0.275,0 1.0602,-0.675 1.74489,-1.5 z m 238,1.15499 c 0,-0.18976 -1.0125,-1.20226 -2.25,-2.25 l -2.25,-1.90499 1.90499,2.25 c 1.79022,2.11444 2.59501,2.70524 2.59501,1.90499 z m -234,-6.15499 c 0.68469,-0.825 1.01989,-1.5 0.74489,-1.5 -0.275,0 -1.0602,0.675 -1.74489,1.5 -0.68469,0.825 -1.01989,1.5 -0.74489,1.5 0.275,0 1.0602,-0.675 1.74489,-1.5 z m 230,1.12244 c 0,-0.20765 -0.7875,-0.99515 -1.75,-1.75 -1.58606,-1.24387 -1.62143,-1.2085 -0.37756,0.37756 1.30637,1.66575 2.12756,2.19548 2.12756,1.37244 z m -3,-3.96745 c 0,-0.18976 -1.0125,-1.20226 -2.25,-2.25 l -2.25,-1.90499 1.90499,2.25 c 1.79022,2.11444 2.59501,2.70524 2.59501,1.90499 z m -223,-2.15499 c 0.68469,-0.825 1.01989,-1.5 0.74489,-1.5 -0.275,0 -1.0602,0.675 -1.74489,1.5 -0.68469,0.825 -1.01989,1.5 -0.74489,1.5 0.275,0 1.0602,-0.675 1.74489,-1.5 z m 3,-4 c 0.68469,-0.825 1.01989,-1.5 0.74489,-1.5 -0.275,0 -1.0602,0.675 -1.74489,1.5 -0.68469,0.825 -1.01989,1.5 -0.74489,1.5 0.275,0 1.0602,-0.675 1.74489,-1.5 z m 216,1.15499 c 0,-0.18976 -1.0125,-1.20226 -2.25,-2.25 l -2.25,-1.90499 1.90499,2.25 c 1.79022,2.11444 2.59501,2.70524 2.59501,1.90499 z m -212,-6.15499 c 0.68469,-0.825 1.01989,-1.5 0.74489,-1.5 -0.275,0 -1.0602,0.675 -1.74489,1.5 -0.68469,0.825 -1.01989,1.5 -0.74489,1.5 0.275,0 1.0602,-0.675 1.74489,-1.5 z m 208,1.12244 c 0,-0.20765 -0.7875,-0.99515 -1.75,-1.75 -1.58606,-1.24387 -1.62143,-1.2085 -0.37756,0.37756 1.30637,1.66575 2.12756,2.19548 2.12756,1.37244 z m -204.5,-5.62244 c 0.99549,-1.1 1.58498,-2 1.30998,-2 -0.275,0 -1.31449,0.9 -2.30998,2 -0.99549,1.1 -1.58498,2 -1.30998,2 0.275,0 1.31449,-0.9 2.30998,-2 z m 201.5,1.65499 c 0,-0.18976 -1.0125,-1.20226 -2.25,-2.25 l -2.25,-1.90499 1.90499,2.25 c 1.79022,2.11444 2.59501,2.70524 2.59501,1.90499 z m -198,-6.15499 c 0.68469,-0.825 1.01989,-1.5 0.74489,-1.5 -0.275,0 -1.0602,0.675 -1.74489,1.5 -0.68469,0.825 -1.01989,1.5 -0.74489,1.5 0.275,0 1.0602,-0.675 1.74489,-1.5 z m 194,1.15499 c 0,-0.18976 -1.0125,-1.20226 -2.25,-2.25 l -2.25,-1.90499 1.90499,2.25 c 1.79022,2.11444 2.59501,2.70524 2.59501,1.90499 z m -190,-6.15499 c 0.68469,-0.825 1.01989,-1.5 0.74489,-1.5 -0.275,0 -1.0602,0.675 -1.74489,1.5 -0.68469,0.825 -1.01989,1.5 -0.74489,1.5 0.275,0 1.0602,-0.675 1.74489,-1.5 z m 183,-2.5 c -1.74243,-2.2 -3.39306,-4 -3.66806,-4 -0.275,0 0.92563,1.8 2.66806,4 1.74243,2.2 3.39306,4 3.66806,4 0.275,0 -0.92563,-1.8 -2.66806,-4 z m -179,-2.5 c 0.68469,-0.825 1.01989,-1.5 0.74489,-1.5 -0.275,0 -1.0602,0.675 -1.74489,1.5 -0.68469,0.825 -1.01989,1.5 -0.74489,1.5 0.275,0 1.0602,-0.675 1.74489,-1.5 z m 3.5,-4.5 c 0.99549,-1.1 1.58498,-2 1.30998,-2 -0.275,0 -1.31449,0.9 -2.30998,2 -0.99549,1.1 -1.58498,2 -1.30998,2 0.275,0 1.31449,-0.9 2.30998,-2 z m 171.5,1.65499 c 0,-0.18976 -1.0125,-1.20226 -2.25,-2.25 l -2.25,-1.90499 1.90499,2.25 c 1.79022,2.11444 2.59501,2.70524 2.59501,1.90499 z m -167.5,-6.65499 c 0.99549,-1.100002 1.58498,-2.000002 1.30998,-2.000002 -0.275,0 -1.31449,0.9 -2.30998,2.000002 -0.99549,1.1 -1.58498,2 -1.30998,2 0.275,0 1.31449,-0.9 2.30998,-2 z m 163.5,1.65498 c 0,-0.18975 -1.0125,-1.20225 -2.25,-2.25 l -2.25,-1.904982 1.90499,2.250002 c 1.79022,2.11444 2.59501,2.70524 2.59501,1.90498 z m -160,-6.154982 c 0.68469,-0.825 1.01989,-1.5 0.74489,-1.5 -0.275,0 -1.0602,0.675 -1.74489,1.5 -0.68469,0.825 -1.01989,1.5 -0.74489,1.5 0.275,0 1.0602,-0.675 1.74489,-1.5 z m 3.5,-4.5 c 0.99549,-1.1 1.58498,-2 1.30998,-2 -0.275,0 -1.31449,0.9 -2.30998,2 -0.99549,1.1 -1.58498,2 -1.30998,2 0.275,0 1.31449,-0.9 2.30998,-2 z m 4,-5 c 0.99549,-1.1 1.58498,-2 1.30998,-2 -0.275,0 -1.31449,0.9 -2.30998,2 -0.99549,1.1 -1.58498,2 -1.30998,2 0.275,0 1.31449,-0.9 2.30998,-2 z m 4,-5 c 0.99549,-1.1 1.58498,-2 1.30998,-2 -0.275,0 -1.31449,0.9 -2.30998,2 -0.99549,1.1 -1.58498,2 -1.30998,2 0.275,0 1.31449,-0.9 2.30998,-2 z m 4,-5 c 0.99549,-1.1 1.58498,-2 1.30998,-2 -0.275,0 -1.31449,0.9 -2.30998,2 -0.99549,1.1 -1.58498,2 -1.30998,2 0.275,0 1.31449,-0.9 2.30998,-2 z m 125.5,1.62244 c 0,-0.20766 -0.7875,-0.99516 -1.75,-1.75 -1.58606,-1.24387 -1.62143,-1.2085 -0.37756,0.37756 1.30637,1.66574 2.12756,2.19547 2.12756,1.37244 z m -121.5,-6.62244 c 0.99549,-1.1 1.58498,-2 1.30998,-2 -0.275,0 -1.31449,0.9 -2.30998,2 -0.99549,1.1 -1.58498,2 -1.30998,2 0.275,0 1.31449,-0.9 2.30998,-2 z m 4,-5 c 0.99549,-1.1 1.58498,-2 1.30998,-2 -0.275,0 -1.31449,0.9 -2.30998,2 -0.99549,1.1 -1.58498,2 -1.30998,2 0.275,0 1.31449,-0.9 2.30998,-2 z m 108.5,0.62244 c 0,-0.20766 -0.7875,-0.99516 -1.75,-1.75 -1.58606,-1.24387 -1.62143,-1.2085 -0.37756,0.37756 1.30637,1.66574 2.12756,2.19547 2.12756,1.37244 z m -104,-6.12244 c 0.68469,-0.825 1.01989,-1.5 0.74489,-1.5 -0.275,0 -1.0602,0.675 -1.74489,1.5 -0.68469,0.825 -1.01989,1.5 -0.74489,1.5 0.275,0 1.0602,-0.675 1.74489,-1.5 z m 100,1.12244 c 0,-0.20766 -0.7875,-0.99515 -1.75,-1.75 -1.58606,-1.24387 -1.62143,-1.2085 -0.37756,0.37756 1.30637,1.66574 2.12756,2.19547 2.12756,1.37244 z m -95.5,-6.62244 c 0.99549,-1.1 1.58498,-2 1.30998,-2 -0.275,0 -1.31449,0.9 -2.30998,2 -0.99549,1.1 -1.58498,2 -1.30998,2 0.275,0 1.31449,-0.9 2.30998,-2 z m 91.5,1.62244 c 0,-0.20766 -0.7875,-0.99515 -1.75,-1.75 -1.58606,-1.24387 -1.62143,-1.2085 -0.37756,0.37756 1.30637,1.66574 2.12756,2.19547 2.12756,1.37244 z m -86.5,-7.62244 c 0.99549,-1.1 1.58498,-2 1.30998,-2 -0.275,0 -1.31449,0.9 -2.30998,2 -0.99549,1.1 -1.58498,2 -1.30998,2 0.275,0 1.31449,-0.9 2.30998,-2 z m 81.5,1.62244 c 0,-0.20766 -0.7875,-0.99515 -1.75,-1.75 -1.58606,-1.24387 -1.62143,-1.2085 -0.37756,0.37756 1.30637,1.66574 2.12756,2.19547 2.12756,1.37244 z m -76.5,-7.62244 c 0.99549,-1.1 1.58498,-2 1.30998,-2 -0.275,0 -1.31449,0.9 -2.30998,2 -0.99549,1.1 -1.58498,2 -1.30998,2 0.275,0 1.31449,-0.9 2.30998,-2 z m 71.5,1.65498 c 0,-0.18975 -1.0125,-1.20225 -2.25,-2.25 l -2.25,-1.90498 1.90499,2.25 c 1.79022,2.11444 2.59501,2.70524 2.59501,1.90498 z m -63,-11.529166 c 0,-0.275 -1.35,0.793386 -3,2.374186 -1.65,1.5808 -3,3.09918 -3,3.37418 0,0.275 1.35,-0.79338 3,-2.37418 1.65,-1.5808 3,-3.09919 3,-3.374186 z m 57,4.548496 c 0,-0.17913 -1.2375,-1.41663 -2.75,-2.75 l -2.75,-2.424314 2.42431,2.750004 c 2.26589,2.57028 3.07569,3.20858 3.07569,2.42431 z m -46,-16.59913 c 0,-0.275 -2.25,1.716167 -5,4.424816 -2.75,2.708649 -5,5.149816 -5,5.424816 0,0.275 2.25,-1.716167 5,-4.424816 2.75,-2.708649 5,-5.149816 5,-5.424816 z m 3,-1.575184 c 0.68469,-0.825 1.01989,-1.5 0.74489,-1.5 -0.275,0 -1.0602,0.675 -1.74489,1.5 -0.68469,0.825 -1.01989,1.5 -0.74489,1.5 0.275,0 1.0602,-0.675 1.74489,-1.5 z"
     id="path3283"
     style="fill:#000000" />
</svg>
